<?xml version="1.0" encoding="UTF-8"?>
<svg width="32px" height="32px" viewBox="0 0 32 32" version="1.1" xmlns="http://www.w3.org/2000/svg" xmlns:xlink="http://www.w3.org/1999/xlink">
    <!-- Generator: Sketch 56.2 (81672) - https://sketch.com -->
    <title>kin_logo_32_32_Purple</title>
    <desc>Created with Sketch.</desc>
    <g id="kin_logo_32_32_Purple" stroke="none" stroke-width="1" fill="none" fill-rule="evenodd">
        <path d="" id="Combined-Shape" fill="#1D51CE"></path>
        <path d="M21.0044566,15.9017274 L21.0044566,16.0986338 C21.0044566,18.9210794 23.2981745,21.2304844 26.1018069,21.2304844 L28.9014921,21.2304844 C30.0605517,21.2304844 31,22.1763577 31,23.342983 L31,32 L22.259327,32 C21.1002674,32 20.1608191,31.0541267 20.1608191,29.8871401 L20.1608191,26.3301795 C20.1608191,23.507734 17.8671011,21.198329 15.0638276,21.198329 L14.8678998,21.198329 C12.0646263,21.198329 9.77090833,23.507734 9.77090833,26.3301795 L9.77090833,32 L0,32 L0,0 L9.77090833,0 L9.77090833,5.73882805 C9.77090833,8.56163487 12.0646263,10.8706786 14.8682587,10.8706786 L15.0638276,10.8706786 C17.8671011,10.8706786 20.1608191,8.56163487 20.1608191,5.73882805 L20.1608191,2.11285988 C20.1608191,0.945873321 21.1002674,0 22.259327,0 L31,0 L31,8.65701705 C31,9.82400361 30.0605517,10.7698769 28.9014921,10.7698769 L26.1018069,10.7698769 C23.2981745,10.7698769 21.0044566,13.0792819 21.0044566,15.9017274" id="Fill-1" fill="#6F41E8"></path>
    </g>
</svg>