<?xml version="1.0" encoding="UTF-8"?>
<svg width="16px" height="16px" viewBox="0 0 16 16" version="1.1" xmlns="http://www.w3.org/2000/svg" xmlns:xlink="http://www.w3.org/1999/xlink">
    <!-- Generator: Sketch 56.2 (81672) - https://sketch.com -->
    <title>kin_logo_16_16_Purple</title>
    <desc>Created with Sketch.</desc>
    <g id="kin_logo_16_16_Purple" stroke="none" stroke-width="1" fill="none" fill-rule="evenodd">
        <path d="" id="Combined-Shape" fill="#1D51CE"></path>
        <path d="M10.5022283,7.95086372 L10.5022283,8.04931692 C10.5022283,9.46053969 11.6490873,10.6152422 13.0509035,10.6152422 L14.450746,10.6152422 C15.0302758,10.6152422 15.5,11.0881788 15.5,11.6714915 L15.5,16 L11.1296635,16 C10.5501337,16 10.0804095,15.5270633 10.0804095,14.9435701 L10.0804095,13.1650898 C10.0804095,11.753867 8.93355057,10.5991645 7.53191379,10.5991645 L7.43394992,10.5991645 C6.03231314,10.5991645 4.88545417,11.753867 4.88545417,13.1650898 L4.88545417,16 L0,16 L0,0 L4.88545417,0 L4.88545417,2.86941402 C4.88545417,4.28081743 6.03231314,5.43533928 7.43412935,5.43533928 L7.53191379,5.43533928 C8.93355057,5.43533928 10.0804095,4.28081743 10.0804095,2.86941402 L10.0804095,1.05642994 C10.0804095,0.47293666 10.5501337,0 11.1296635,0 L15.5,0 L15.5,4.32850852 C15.5,4.91200181 15.0302758,5.38493847 14.450746,5.38493847 L13.0509035,5.38493847 C11.6490873,5.38493847 10.5022283,6.53964096 10.5022283,7.95086372" id="Fill-1" fill="#6F41E8"></path>
    </g>
</svg>