<?xml version="1.0" encoding="UTF-8"?>
<svg width="10px" height="10px" viewBox="0 0 10 10" version="1.1" xmlns="http://www.w3.org/2000/svg" xmlns:xlink="http://www.w3.org/1999/xlink">
    <!-- Generator: Sketch 56.2 (81672) - https://sketch.com -->
    <title>kin_logo_10_10_Purple</title>
    <desc>Created with Sketch.</desc>
    <g id="kin_logo_10_10_Purple" stroke="none" stroke-width="1" fill="none" fill-rule="evenodd">
        <path d="" id="Combined-Shape" fill="#1D51CE"></path>
        <path d="M6.56389268,4.96928983 L6.56389268,5.03082308 C6.56389268,5.9128373 7.28067954,6.63452636 8.15681467,6.63452636 L9.03171628,6.63452636 C9.3939224,6.63452636 9.6875,6.93011178 9.6875,7.29468217 L9.6875,10 L6.95603969,10 C6.59383356,10 6.30025596,9.70441459 6.30025596,9.33973129 L6.30025596,8.2281811 C6.30025596,7.34616687 5.5834691,6.62447781 4.70744612,6.62447781 L4.6462187,6.62447781 C3.77019571,6.62447781 3.05340885,7.34616687 3.05340885,8.2281811 L3.05340885,10 L0,10 L0,0 L3.05340885,0 L3.05340885,1.79338376 C3.05340885,2.6755109 3.77019571,3.39708705 4.64633084,3.39708705 L4.70744612,3.39708705 C5.5834691,3.39708705 6.30025596,2.6755109 6.30025596,1.79338376 L6.30025596,0.660268714 C6.30025596,0.295585413 6.59383356,0 6.95603969,0 L9.6875,0 L9.6875,2.70531783 C9.6875,3.07000113 9.3939224,3.36558654 9.03171628,3.36558654 L8.15681467,3.36558654 C7.28067954,3.36558654 6.56389268,4.0872756 6.56389268,4.96928983" id="Fill-1" fill="#6F41E8"></path>
    </g>
</svg>