<?xml version="1.0" encoding="UTF-8"?>
<svg width="18px" height="18px" viewBox="0 0 18 18" version="1.1" xmlns="http://www.w3.org/2000/svg" xmlns:xlink="http://www.w3.org/1999/xlink">
    <!-- Generator: Sketch 56.2 (81672) - https://sketch.com -->
    <title>kin_logo_18_18</title>
    <desc>Created with Sketch.</desc>
    <g id="kin_logo_18_18" stroke="none" stroke-width="1" fill="none" fill-rule="evenodd">
        <path d="" id="Combined-Shape" fill="#1D51CE"></path>
        <path d="M11.8150068,8.94472169 L11.8150068,9.05548154 C11.8150068,10.6431071 13.1052232,11.9421475 14.6822664,11.9421475 L16.2570893,11.9421475 C16.9090603,11.9421475 17.4375,12.4742012 17.4375,13.1304279 L17.4375,18 L12.5208714,18 C11.8689004,18 11.3404607,17.4679463 11.3404607,16.8115163 L11.3404607,14.810726 C11.3404607,13.2231004 10.0502444,11.9240601 8.47340301,11.9240601 L8.36319366,11.9240601 C6.78635228,11.9240601 5.49613594,13.2231004 5.49613594,14.810726 L5.49613594,18 L0,18 L0,0 L5.49613594,0 L5.49613594,3.22809078 C5.49613594,4.81591961 6.78635228,6.11475669 8.36339551,6.11475669 L8.47340301,6.11475669 C10.0502444,6.11475669 11.3404607,4.81591961 11.3404607,3.22809078 L11.3404607,1.18848369 C11.3404607,0.532053743 11.8689004,0 12.5208714,0 L17.4375,0 L17.4375,4.86957209 C17.4375,5.52600203 16.9090603,6.05805578 16.2570893,6.05805578 L14.6822664,6.05805578 C13.1052232,6.05805578 11.8150068,7.35709608 11.8150068,8.94472169" id="Fill-1" fill="#1F1F1F"></path>
    </g>
</svg>