<?xml version="1.0" encoding="UTF-8"?>
<svg width="24px" height="24px" viewBox="0 0 24 24" version="1.1" xmlns="http://www.w3.org/2000/svg" xmlns:xlink="http://www.w3.org/1999/xlink">
    <!-- Generator: Sketch 56.2 (81672) - https://sketch.com -->
    <title>kin_logo_24_24_Purple</title>
    <desc>Created with Sketch.</desc>
    <g id="kin_logo_24_24_Purple" stroke="none" stroke-width="1" fill="none" fill-rule="evenodd">
        <path d="" id="Combined-Shape" fill="#1D51CE"></path>
        <path d="M15.7533424,11.9262956 L15.7533424,12.0739754 C15.7533424,14.1908095 17.4736309,15.9228633 19.5763552,15.9228633 L21.6761191,15.9228633 C22.5454138,15.9228633 23.25,16.6322683 23.25,17.5072372 L23.25,24 L16.6944952,24 C15.8252005,24 15.1206143,23.290595 15.1206143,22.4153551 L15.1206143,19.7476346 C15.1206143,17.6308005 13.4003259,15.8987468 11.2978707,15.8987468 L11.1509249,15.8987468 C9.04846971,15.8987468 7.32818125,17.6308005 7.32818125,19.7476346 L7.32818125,24 L0,24 L0,0 L7.32818125,0 L7.32818125,4.30412103 C7.32818125,6.42122615 9.04846971,8.15300892 11.151194,8.15300892 L11.2978707,8.15300892 C13.4003259,8.15300892 15.1206143,6.42122615 15.1206143,4.30412103 L15.1206143,1.58464491 C15.1206143,0.70940499 15.8252005,0 16.6944952,0 L23.25,0 L23.25,6.49276279 C23.25,7.36800271 22.5454138,8.0774077 21.6761191,8.0774077 L19.5763552,8.0774077 C17.4736309,8.0774077 15.7533424,9.80946144 15.7533424,11.9262956" id="Fill-1" fill="#6F41E8"></path>
    </g>
</svg>