<?xml version="1.0" encoding="UTF-8"?>
<svg width="12px" height="12px" viewBox="0 0 12 12" version="1.1" xmlns="http://www.w3.org/2000/svg" xmlns:xlink="http://www.w3.org/1999/xlink">
    <!-- Generator: Sketch 56.2 (81672) - https://sketch.com -->
    <title>kin_logo_12_12_Purple</title>
    <desc>Created with Sketch.</desc>
    <g id="kin_logo_12_12_Purple" stroke="none" stroke-width="1" fill="none" fill-rule="evenodd">
        <path d="" id="Combined-Shape" fill="#1D51CE"></path>
        <path d="M7.87667122,5.96314779 L7.87667122,6.03698769 C7.87667122,7.09540476 8.73681545,7.96143164 9.7881776,7.96143164 L10.8380595,7.96143164 C11.2727069,7.96143164 11.625,8.31613413 11.625,8.75361861 L11.625,12 L8.34724762,12 C7.91260027,12 7.56030716,11.6452975 7.56030716,11.2076775 L7.56030716,9.87381732 C7.56030716,8.81540025 6.70016293,7.94937338 5.64893534,7.94937338 L5.57546244,7.94937338 C4.52423486,7.94937338 3.66409062,8.81540025 3.66409062,9.87381732 L3.66409062,12 L0,12 L0,0 L3.66409062,0 L3.66409062,2.15206052 C3.66409062,3.21061307 4.52423486,4.07650446 5.57559701,4.07650446 L5.64893534,4.07650446 C6.70016293,4.07650446 7.56030716,3.21061307 7.56030716,2.15206052 L7.56030716,0.792322457 C7.56030716,0.354702495 7.91260027,0 8.34724762,0 L11.625,0 L11.625,3.24638139 C11.625,3.68400135 11.2727069,4.03870385 10.8380595,4.03870385 L9.7881776,4.03870385 C8.73681545,4.03870385 7.87667122,4.90473072 7.87667122,5.96314779" id="Fill-1" fill="#6F41E8"></path>
    </g>
</svg>