<?xml version="1.0" encoding="UTF-8"?>
<svg width="6px" height="6px" viewBox="0 0 6 6" version="1.1" xmlns="http://www.w3.org/2000/svg" xmlns:xlink="http://www.w3.org/1999/xlink">
    <!-- Generator: Sketch 56.2 (81672) - https://sketch.com -->
    <title>kin_logo_6_6</title>
    <desc>Created with Sketch.</desc>
    <g id="kin_logo_6_6" stroke="none" stroke-width="1" fill="none" fill-rule="evenodd">
        <path d="" id="Combined-Shape" fill="#1D51CE"></path>
        <path d="M3.93833561,2.9815739 L3.93833561,3.01849385 C3.93833561,3.54770238 4.36840773,3.98071582 4.8940888,3.98071582 L5.41902977,3.98071582 C5.63635344,3.98071582 5.8125,4.15806707 5.8125,4.3768093 L5.8125,6 L4.17362381,6 C3.95630014,6 3.78015358,5.82264875 3.78015358,5.60383877 L3.78015358,4.93690866 C3.78015358,4.40770012 3.35008146,3.97468669 2.82446767,3.97468669 L2.78773122,3.97468669 C2.26211743,3.97468669 1.83204531,4.40770012 1.83204531,4.93690866 L1.83204531,6 L0,6 L0,0 L1.83204531,0 L1.83204531,1.07603026 C1.83204531,1.60530654 2.26211743,2.03825223 2.7877985,2.03825223 L2.82446767,2.03825223 C3.35008146,2.03825223 3.78015358,1.60530654 3.78015358,1.07603026 L3.78015358,0.396161228 C3.78015358,0.177351248 3.95630014,0 4.17362381,0 L5.8125,0 L5.8125,1.6231907 C5.8125,1.84200068 5.63635344,2.01935193 5.41902977,2.01935193 L4.8940888,2.01935193 C4.36840773,2.01935193 3.93833561,2.45236536 3.93833561,2.9815739" id="Fill-1" fill="#1F1F1F"></path>
    </g>
</svg>